:SAMPLES-PER-SECOND 30
:FULLY-SPECIFIED
:DEGREES
1526
root  -47.5894 38.7667 19.1683 7.1969 67.6715 12.6387
RightUpLeg  22.8885 -15.9335 -10.7851
RightLeg  16.3747 5.36191 2.02672
RightFoot  -20.6412 0.739845 10.8394
RightToes  5.82063e-011 0 -3.6325e-017
Spine  2.54591 2.04022 2.6894
Spine1  14.453 3.67684 -4.70482
HEad  -30.7609 7.49996 3.39755
LeftShoulder1  0.394391 2.39734 -29.5185
LeftArm  -9.61013 18.6152 -28.6844
LeftForeArm  13.72 -5.80594 -4.30879
LeftHand  -0.109467 7.45807 -3.4803
RightShoulder  -1.03912 -6.24383 31.4256
RightArm  3.7501 15.3476 41.1955
RightForeArm  4.15114 8.53827 4.1758
RightHand  -0.317251 6.4853 -3.46333
LeftUpLeg  -14.4714 -0.957496 -11.18
LeftLeg  7.85323 13.1402 -0.944238
LeftFoot  7.99075 -1.92368 10.9367
LeftToes  -1.20963e-009 8.6283e-011 2.04439e-011
1527
root  -46.5453 38.8294 19.6457 10.4585 67.5157 16.6647
RightUpLeg  20.8509 -15.7125 -13.6414
RightLeg  24.7157 7.27592 3.31609
RightFoot  -17.3349 0.740745 16.7693
RightToes  5.82063e-011 0 -3.6325e-017
Spine  3.8472 2.33724 2.6199
Spine1  12.8798 4.70337 -8.12934
HEad  -29.2943 6.5169 3.42461
LeftShoulder1  0.432635 2.29904 -29.7963
LeftArm  -9.46524 18.5211 -30.3169
LeftForeArm  19.0272 -3.51927 -4.31424
LeftHand  -0.145112 7.68694 -4.90328
RightShoulder  -0.903949 -5.93961 30.4961
RightArm  2.63285 13.3308 44.7118
RightForeArm  4.37635 8.80178 3.66305
RightHand  -0.400858 5.23929 -4.67189
LeftUpLeg  -12.814 -0.00157199 -12.5555
LeftLeg  9.54963 12.4301 -1.28714
LeftFoot  5.24932 -1.54083 10.333
LeftToes  -1.20963e-009 8.6283e-011 2.04439e-011
1528
root  -45.5353 38.917 20.0572 11.3496 66.7412 17.6788
RightUpLeg  15.5872 -12.365 -13.9113
RightLeg  35.5856 6.39315 4.69252
RightFoot  -10.2393 -0.261384 21.0307
RightToes  5.82063e-011 0 -3.6325e-017
Spine  4.26572 2.6929 3.45207
Spine1  11.7772 5.63211 -11.173
HEad  -27.6598 7.06716 3.23645
LeftShoulder1  0.508661 2.09172 -29.9151
LeftArm  -10.4669 19.6365 -32.7137
LeftForeArm  20.3981 -2.28036 -3.72003
LeftHand  -0.165822 7.59259 -6.05291
RightShoulder  -0.759116 -5.64308 28.8397
RightArm  4.5072 12.4585 48.1763
RightForeArm  4.31497 8.90249 4.31653
RightHand  -0.383222 5.16017 -4.52061
LeftUpLeg  -11.6708 0.0908502 -13.1051
LeftLeg  10.8906 13.1372 -0.89316
LeftFoot  3.15043 -1.36997 10.5893
LeftToes  -1.20963e-009 8.6283e-011 2.04439e-011
1529
root  -44.5239 38.9885 20.4858 12.2485 65.604 18.8865
RightUpLeg  9.5823 -8.96061 -14.7462
RightLeg  46.4636 6.4849 6.94328
RightFoot  -0.0126898 -1.89674 19.5444
RightToes  5.82063e-011 0 -3.6325e-017
Spine  4.11915 2.80522 2.714
Spine1  11.4989 5.93922 -12.7212
HEad  -26.3548 8.33457 2.74012
LeftShoulder1  0.405796 2.38134 -30.0814
LeftArm  -11.3783 21.1658 -34.9503
LeftForeArm  18.6463 -2.39898 -3.29297
LeftHand  -0.223202 8.34199 -6.58309
RightShoulder  -0.615573 -5.26991 28.1386
RightArm  7.44 13.9887 50.8468
RightForeArm  7.63057 8.73597 5.15534
RightHand  -0.216092 4.76348 -2.7357
LeftUpLeg  -10.0638 0.398572 -13.7526
LeftLeg  11.6343 13.9439 -0.657696
LeftFoot  1.01234 -1.1223 10.2645
LeftToes  -1.20963e-009 8.6283e-011 2.04439e-011
1530
root  -43.6239 38.9485 20.9445 13.344 65.3893 20.9639
RightUpLeg  4.47598 -5.45864 -15.0503
RightLeg  55.4774 5.78779 8.58473
RightFoot  8.03199 -2.68502 15.8009
RightToes  5.82063e-011 0 -3.6325e-017
Spine  4.68037 2.6701 0.612952
Spine1  11.8437 5.56655 -13.0172
HEad  -26.4104 9.81731 2.62649
LeftShoulder1  0.304799 2.67555 -30.6692
LeftArm  -11.2104 20.853 -36.2863
LeftForeArm  17.8409 -2.08363 -3.47768
LeftHand  -0.199984 7.9086 -6.74882
RightShoulder  -0.590422 -5.18655 28.2985
RightArm  11.66 14.8331 51.8134
RightForeArm  10.7554 12.5139 5.64962
RightHand  -0.058223 3.44793 -1.02685
LeftUpLeg  -8.25632 0.94354 -14.723
LeftLeg  13.2145 13.6143 -0.146504
LeftFoot  -1.33523 -0.845983 9.75234
LeftToes  -1.20963e-009 8.6283e-011 2.04439e-011
1531
root  -42.6988 38.9639 21.395 14.0676 66.4737 22.2504
RightUpLeg  0.430416 -4.31994 -15.5279
RightLeg  61.6771 4.85857 9.17758
RightFoot  5.30081 -2.26547 15.6442
RightToes  5.82063e-011 0 -3.6325e-017
Spine  4.72666 2.30195 -0.52901
Spine1  12.4249 5.04302 -13.0666
HEad  -26.6219 9.87376 2.48155
LeftShoulder1  0.315256 2.6491 -30.8062
LeftArm  -10.3286 19.0674 -37.2452
LeftForeArm  18.7383 -1.78513 -4.13893
LeftHand  -0.183549 7.67836 -6.66228
RightShoulder  -0.714623 -5.49014 29.3128
RightArm  15.1897 14.9183 51.9968
RightForeArm  12.3536 16.9676 4.94232
RightHand  -0.00115347 3.27284 -0.276344
LeftUpLeg  -6.42512 1.29854 -15.1999
LeftLeg  14.3898 12.43 0.241486
LeftFoot  -3.1947 -0.704367 10.1326
LeftToes  -1.20963e-009 8.6283e-011 2.04439e-011
1532
root  -41.8178 39.0148 21.8731 14.0806 68.2778 22.5842
RightUpLeg  -3.65268 -3.10364 -14.7337
RightLeg  65.0818 3.5997 7.85238
RightFoot  4.80677 -1.93562 13.8273
RightToes  5.82063e-011 0 -3.6325e-017
Spine  5.07524 2.09116 -1.61411
Spine1  12.4934 4.37458 -11.9104
HEad  -26.6082 9.59311 2.7166
LeftShoulder1  0.276223 2.76978 -31.5059
LeftArm  -8.97387 15.1405 -37.7082
LeftForeArm  21.0345 -0.729128 -5.05235
LeftHand  -0.17806 7.82065 -6.08635
RightShoulder  -0.735408 -5.52947 29.6364
RightArm  15.92 13.106 51.612
RightForeArm  11.6199 21.9219 4.27121
RightHand  -0.0479019 4.2308 -0.812869
LeftUpLeg  -4.69155 1.84168 -14.866
LeftLeg  15.5362 10.4943 0.442625
LeftFoot  -4.93036 -0.542811 10.1809
LeftToes  -1.20963e-009 8.6283e-011 2.04439e-011
1533
root  -40.9413 39.0592 22.3554 14.9224 70.7309 23.3214
RightUpLeg  -7.65597 -2.44219 -13.971
RightLeg  66.0327 2.61663 5.84136
RightFoot  4.79965 -1.64837 11.8151
RightToes  5.82063e-011 0 -3.6325e-017
Spine  4.94198 1.6546 -2.57199
Spine1  12.5949 3.53721 -10.8925
HEad  -26.3752 9.09445 3.19262
LeftShoulder1  0.280617 2.76219 -31.7964
LeftArm  -7.91665 11.0364 -38.5839
LeftForeArm  23.7342 -0.510448 -5.91876
LeftHand  -0.197719 8.68369 -4.89923
RightShoulder  -0.728965 -5.50139 29.8144
RightArm  13.9622 11.0722 51.2798
RightForeArm  10.3177 24.9218 4.76566
RightHand  -0.281677 5.01568 -3.45574
LeftUpLeg  -3.24626 2.38745 -14.2332
LeftLeg  16.5045 7.65549 0.28215
LeftFoot  -6.73475 -0.362516 10.0147
LeftToes  -1.20963e-009 8.6283e-011 2.04439e-011
1534
root  -40.0791 39.1094 22.8238 15.5891 73.1159 24.0844
RightUpLeg  -10.9611 -1.08675 -13.0378
RightLeg  64.5418 1.93215 3.86187
RightFoot  4.28898 -1.28268 9.53363
RightToes  5.82063e-011 0 -3.6325e-017
Spine  5.29733 1.21833 -3.66098
Spine1  12.4223 2.61215 -9.47403
HEad  -26.102 9.05226 3.52348
LeftShoulder1  0.199461 2.98576 -32.3911
LeftArm  -6.64429 6.91848 -39.1851
LeftForeArm  24.1679 -1.1233 -6.8924
LeftHand  -0.114989 8.5565 -2.41324
RightShoulder  -0.707855 -5.44874 29.7045
RightArm  12.5146 9.61955 51.4088
RightForeArm  9.45509 25.966 5.07424
RightHand  -0.376638 5.8076 -4.23095
LeftUpLeg  -1.41159 3.02926 -13.3764
LeftLeg  16.9547 4.92988 -0.044502
LeftFoot  -8.18499 -0.229928 10.0825
LeftToes  -1.20963e-009 8.6283e-011 2.04439e-011
1535
root  -39.2044 39.1762 23.2617 15.2444 75.2412 23.8479
RightUpLeg  -13.4808 0.725832 -12.0677
RightLeg  60.5201 1.53222 2.46328
RightFoot  3.38287 -0.970801 7.69749
RightToes  5.82063e-011 0 -3.6325e-017
Spine  5.98139 0.913397 -3.9074
Spine1  11.8042 2.07358 -8.74218
HEad  -25.8087 9.03807 4.3408
LeftShoulder1  0.286625 2.74854 -31.8437
LeftArm  -6.00752 3.60068 -40.7138
LeftForeArm  23.9141 -2.26202 -7.45452
LeftHand  -0.0927743 8.93436 -1.36809
RightShoulder  -0.770399 -5.60309 30.0436
RightArm  12.127 8.52425 51.0802
RightForeArm  8.57835 25.8344 5.08971
RightHand  -0.366042 6.00919 -4.05151
LeftUpLeg  0.592082 3.74024 -12.1211
LeftLeg  17.0791 2.37616 -0.366085
LeftFoot  -9.64873 -0.0864375 9.80146
LeftToes  -1.20963e-009 8.6283e-011 2.04439e-011
1536
root  -38.2991 39.2176 23.6883 16.1145 77.0805 24.6977
RightUpLeg  -15.3165 2.44393 -11.7915
RightLeg  54.4137 1.16503 1.34984
RightFoot  1.53336 -0.91852 8.22288
RightToes  5.82063e-011 0 -3.6325e-017
Spine  5.95138 0.604895 -4.4349
Spine1  11.8594 1.60421 -7.89488
HEad  -25.9059 8.63216 4.75865
LeftShoulder1  0.300752 2.70751 -31.682
LeftArm  -5.50117 0.140786 -41.8753
LeftForeArm  22.5652 -3.75052 -7.87934
LeftHand  -0.0620289 8.68572 -0.411368
RightShoulder  -0.77005 -5.59072 30.2308
RightArm  12.8697 8.25277 50.9185
RightForeArm  8.22654 24.1345 4.73491
RightHand  -0.299845 5.74077 -3.45124
LeftUpLeg  2.43936 4.0976 -11.2391
LeftLeg  17.1149 0.162127 -0.534597
LeftFoot  -11.005 0.0372738 9.84664
LeftToes  -1.20963e-009 8.6283e-011 2.04439e-011
1537
root  -37.3507 39.235 24.1133 17.2882 78.4329 25.743
RightUpLeg  -16.6835 4.17826 -11.7734
RightLeg  46.835 1.01861 0.857662
RightFoot  0.275651 -0.868488 8.53642
RightToes  5.82063e-011 0 -3.6325e-017
Spine  5.77505 0.5089 -5.12419
Spine1  11.9421 1.27723 -6.76637
HEad  -25.9983 8.4438 4.96963
LeftShoulder1  0.261428 2.81823 -32.0342
LeftArm  -4.51605 -3.02491 -42.6309
LeftForeArm  19.902 -5.81302 -8.51384
LeftHand  -0.0127897 8.01895 1.21939
RightShoulder  -0.707257 -5.44767 29.6997
RightArm  14.4579 8.2117 51.1426
RightForeArm  8.02468 21.232 4.43078
RightHand  -0.234154 4.98625 -2.9114
LeftUpLeg  4.31399 4.59551 -10.3281
LeftLeg  16.937 -1.70695 -0.787062
LeftFoot  -12.3338 0.157488 9.61412
LeftToes  -1.20963e-009 8.6283e-011 2.04439e-011
